<?xml version="1.0" encoding="UTF-8" ?>
<!DOCTYPE svg PUBLIC "-//W3C//DTD SVG 1.1//EN" "http://www.w3.org/Graphics/SVG/1.1/DTD/svg11.dtd">
<svg width="190pt" height="190pt" viewBox="0 0 190 190" version="1.1" xmlns="http://www.w3.org/2000/svg">
<g id="#9fc93aff">
<path fill="#9fc93a" opacity="1.00" d=" M 105.44 0.00 L 107.35 0.00 C 119.29 4.40 131.94 6.38 143.96 10.49 C 143.81 11.98 143.66 13.48 143.51 14.98 C 141.45 15.44 139.08 15.30 137.32 16.55 C 136.08 18.49 135.61 20.79 135.00 22.98 C 132.71 32.28 130.29 41.54 127.70 50.75 C 127.12 53.01 126.43 55.28 126.48 57.63 C 127.71 59.66 129.76 60.99 131.51 62.53 C 137.76 67.49 142.24 74.39 145.18 81.74 C 151.02 96.98 148.55 115.30 138.31 128.11 C 138.69 122.89 139.52 117.61 138.62 112.39 C 137.45 105.55 135.05 98.76 130.74 93.25 C 128.59 90.35 125.79 87.68 125.07 84.00 C 124.00 79.47 123.34 74.52 120.06 70.95 C 114.00 63.38 102.42 61.32 94.01 66.03 C 90.42 68.00 88.20 71.56 85.36 74.39 C 83.16 76.51 80.10 77.30 77.38 78.53 C 70.92 81.10 65.41 85.68 61.01 91.01 C 57.44 95.28 55.32 100.47 52.74 105.34 C 50.60 91.29 55.37 76.42 65.10 66.10 C 69.90 60.96 75.86 56.94 82.37 54.31 C 87.25 52.33 92.49 51.56 97.63 50.54 C 98.66 47.82 99.59 45.07 100.29 42.25 C 102.51 33.26 104.92 24.32 107.44 15.41 C 107.93 13.19 108.80 10.90 108.36 8.60 C 107.19 7.03 105.67 5.75 104.27 4.40 C 104.65 2.93 105.05 1.47 105.44 0.00 M 113.09 11.86 C 110.17 21.88 107.87 32.06 105.02 42.10 C 104.17 44.98 103.54 47.92 103.08 50.89 C 103.80 50.97 105.25 51.12 105.98 51.19 C 108.49 44.57 109.76 37.58 111.75 30.79 C 113.20 24.50 115.64 18.41 116.24 11.94 C 115.45 11.92 113.88 11.88 113.09 11.86 Z" />
<path fill="#9fc93a" opacity="1.00" d=" M 102.41 68.40 C 108.53 67.61 114.88 70.76 117.90 76.14 C 119.81 79.31 120.11 83.16 119.70 86.76 C 118.86 94.28 111.58 100.43 104.01 99.94 C 98.09 100.16 92.41 96.50 89.80 91.26 C 88.14 87.97 87.84 84.10 88.57 80.52 C 89.94 74.07 95.83 68.88 102.41 68.40 Z" />
</g>
<g id="#1ebce8ff">
<path fill="#1ebce8" opacity="1.00" d=" M 37.87 95.08 C 40.68 90.55 42.97 85.67 46.50 81.62 C 45.84 86.06 44.85 90.48 44.86 95.00 C 45.06 109.42 50.79 123.77 60.91 134.10 C 63.18 136.49 65.97 138.34 68.05 140.90 C 69.65 143.87 70.07 147.33 71.73 150.28 C 76.64 159.08 88.69 163.33 97.87 158.83 C 101.70 157.26 104.12 153.71 107.49 151.48 C 111.08 150.08 115.00 149.84 118.64 148.59 C 131.07 144.52 142.08 136.06 148.94 124.90 C 151.80 120.56 153.44 115.61 155.67 110.96 C 156.80 116.09 156.52 121.34 156.44 126.55 C 158.84 127.73 161.91 128.24 163.59 130.46 C 164.19 135.89 161.76 141.27 158.69 145.64 C 156.25 145.49 153.81 145.35 151.38 145.22 C 149.13 148.99 146.81 152.73 145.04 156.76 C 146.32 158.51 147.75 160.20 148.69 162.18 C 148.78 164.91 146.64 167.04 144.98 168.98 C 142.80 171.09 140.37 173.68 137.14 173.82 C 134.99 172.86 133.06 171.48 131.06 170.26 C 127.42 172.23 123.86 174.34 120.33 176.50 C 120.36 178.87 120.60 181.25 120.40 183.62 C 119.49 185.61 117.18 186.44 115.29 187.27 C 111.97 188.38 108.21 189.52 104.77 188.29 C 103.45 186.42 102.69 184.24 101.50 182.29 C 97.26 181.10 92.70 181.85 88.34 182.00 C 87.38 184.13 86.56 186.35 85.24 188.30 C 83.41 189.24 81.23 188.89 79.26 188.73 C 75.78 188.15 72.04 187.09 69.63 184.35 C 68.81 181.93 70.03 179.19 69.12 176.80 C 65.80 174.27 62.00 172.45 58.32 170.49 C 56.57 171.83 54.85 173.26 52.89 174.30 C 50.46 174.42 48.36 172.87 46.53 171.45 C 43.97 169.23 41.35 166.56 40.78 163.08 C 41.69 160.81 43.28 158.92 44.68 156.95 C 42.69 153.07 40.46 149.32 37.94 145.76 C 35.67 146.03 33.40 146.31 31.13 146.60 C 27.61 143.00 26.11 137.91 25.76 133.00 C 25.65 128.96 30.39 128.40 33.11 126.84 C 33.39 122.64 33.39 118.43 33.05 114.23 C 30.09 112.61 24.77 111.59 25.39 107.15 C 26.17 102.95 27.30 98.39 30.33 95.22 C 32.82 94.82 35.36 95.02 37.87 95.08 Z" />
<path fill="#1ebce8" opacity="1.00" d=" M 84.44 124.59 C 89.52 123.01 95.48 123.84 99.58 127.37 C 104.82 131.55 107.14 139.25 104.44 145.50 C 102.00 152.35 94.42 156.74 87.26 155.61 C 79.35 154.63 73.03 147.01 73.39 139.08 C 73.80 132.66 78.22 126.52 84.44 124.59 Z" />
</g>
</svg>
